<?xml version="1.0" standalone="no"?>
<!DOCTYPE svg PUBLIC "-//W3C//DTD SVG 20010904//EN"
 "http://www.w3.org/TR/2001/REC-SVG-20010904/DTD/svg10.dtd">
<svg version="1.0" xmlns="http://www.w3.org/2000/svg"
 width="2084.000000pt" height="2084.000000pt" viewBox="0 0 2084.000000 2084.000000"
 preserveAspectRatio="xMidYMid meet">

<g transform="translate(0.000000,2084.000000) scale(0.100000,-0.100000)"
fill="#000000" stroke="none">
<path d="M8475 15817 c-104 -59 -122 -196 -37 -281 19 -20 53 -41 76 -49 l41
-14 -2 -99 c-8 -361 -134 -736 -363 -1080 -60 -89 -97 -132 -180 -207 -311
-278 -608 -678 -796 -1072 -63 -132 -142 -326 -165 -402 -7 -24 -15 -43 -19
-43 -4 0 -10 73 -14 163 -10 250 -30 475 -47 542 -9 32 -37 66 -140 169 -71
70 -129 133 -129 139 0 5 32 71 71 146 83 160 195 332 272 416 53 59 55 59 83
46 137 -64 274 13 274 154 0 59 -19 104 -58 137 -128 108 -318 9 -298 -156 6
-52 5 -52 -40 -97 -93 -91 -213 -268 -317 -469 -32 -63 -60 -117 -62 -119 -3
-2 -56 41 -120 94 l-116 98 6 48 c13 90 -58 189 -145 204 -118 20 -231 -84
-213 -197 8 -52 33 -97 70 -125 45 -35 133 -43 186 -18 22 10 41 13 50 8 38
-21 401 -340 468 -410 65 -69 77 -86 83 -125 9 -59 26 -262 26 -312 0 -38 -1
-37 -40 40 -80 159 -191 277 -316 336 -66 31 -91 29 -100 -8 -8 -32 -2 -39 76
-80 179 -94 320 -331 379 -637 32 -167 36 -275 12 -392 -48 -240 -78 -590 -66
-780 l6 -110 -59 105 c-32 58 -77 134 -99 170 l-41 65 18 90 c51 250 30 458
-65 650 -82 167 -216 297 -407 395 -241 125 -521 185 -868 188 l-145 1 167
-58 c212 -73 302 -126 423 -246 127 -126 191 -243 221 -404 30 -153 48 -216
81 -282 50 -101 110 -145 293 -218 114 -45 182 -115 293 -301 88 -147 204
-385 211 -431 38 -242 91 -465 161 -667 25 -73 45 -134 45 -135 0 -2 -44 19
-97 46 l-98 49 -2 45 c-6 116 -102 231 -256 307 -115 56 -185 75 -312 82 -169
10 -317 -36 -424 -132 -50 -45 -158 -184 -144 -184 5 0 40 9 78 20 220 63 373
55 477 -24 25 -19 76 -73 112 -120 96 -124 123 -141 210 -141 60 0 83 6 144
35 l73 34 77 -38 c42 -20 111 -58 152 -83 l75 -45 55 -115 c30 -63 56 -118 58
-122 1 -5 -23 1 -55 12 -45 16 -83 21 -168 21 -101 1 -115 -1 -172 -28 -89
-41 -94 -49 -52 -92 54 -57 174 -132 245 -154 87 -26 186 -26 266 1 33 11 64
17 68 12 4 -4 40 -57 80 -116 41 -60 104 -146 142 -193 37 -46 64 -84 60 -84
-5 0 -53 15 -108 34 -301 101 -622 133 -768 76 -50 -19 -143 -86 -133 -96 2
-2 21 -6 43 -9 241 -36 500 -114 859 -260 257 -104 668 -293 643 -295 -4 0
-62 14 -130 30 -316 78 -654 116 -948 106 -200 -6 -271 -19 -352 -63 -43 -23
-88 -68 -88 -87 0 -3 37 -6 81 -6 266 0 653 -108 1149 -322 286 -123 467 -187
616 -217 125 -26 314 -43 396 -36 164 14 268 27 321 39 55 13 61 12 174 -20
335 -97 699 -142 1058 -130 110 3 216 8 235 11 19 2 78 9 130 16 135 15 371
64 513 105 l122 35 111 -21 c410 -77 730 -30 1207 176 478 208 736 293 1033
344 64 11 156 20 205 20 49 0 89 3 89 8 0 17 -34 54 -70 77 -20 13 -71 34
-111 47 -69 21 -90 23 -334 22 -188 0 -299 -5 -400 -18 -162 -20 -400 -65
-530 -100 -49 -13 -91 -23 -93 -22 -4 5 280 138 473 221 438 190 808 310 1047
340 43 6 46 8 36 24 -18 30 -88 70 -157 91 -154 48 -481 4 -798 -108 l-112
-40 58 72 c73 91 231 304 231 314 0 4 6 14 13 24 12 15 17 15 67 -3 119 -40
276 -15 394 64 61 41 146 115 146 128 0 15 -74 56 -130 73 -69 21 -177 19
-262 -3 -38 -9 -68 -17 -68 -16 0 1 24 53 54 116 l54 114 79 47 c43 26 113 64
155 84 l77 38 73 -35 c62 -29 84 -34 144 -34 88 0 113 17 218 149 78 98 140
146 214 166 78 20 196 13 327 -20 66 -16 122 -30 123 -30 2 0 -13 24 -34 53
-126 176 -258 251 -464 264 -311 19 -639 -180 -640 -388 l0 -47 -102 -50 c-57
-28 -104 -49 -105 -48 -2 1 11 40 28 87 45 123 103 328 129 454 13 61 37 142
55 180 156 335 227 468 326 616 77 115 130 158 264 216 144 61 189 93 235 165
48 73 63 117 95 282 41 207 114 340 259 472 100 92 206 150 394 215 l167 59
-140 -2 c-265 -2 -451 -29 -656 -98 -391 -130 -614 -347 -696 -676 -24 -99
-22 -327 4 -456 l20 -97 -41 -63 c-22 -35 -80 -135 -128 -223 l-88 -160 6 200
c7 225 -5 426 -38 640 -59 376 17 766 198 1021 55 79 120 135 198 174 63 32
80 53 65 81 -16 30 -40 30 -106 -3 -121 -59 -246 -198 -323 -359 l-31 -64 6
70 c15 197 28 310 36 332 22 59 519 500 548 487 39 -17 129 -16 165 1 96 46
130 180 68 264 -68 93 -196 104 -275 24 -53 -52 -66 -114 -42 -199 5 -16 -12
-36 -95 -107 -56 -48 -105 -87 -109 -87 -4 0 -20 28 -35 63 -84 183 -239 419
-349 531 -66 68 -69 73 -71 123 -6 116 -123 199 -231 163 -174 -58 -167 -308
11 -348 48 -11 124 6 154 33 20 18 22 18 76 -36 101 -99 214 -270 324 -490
l51 -101 -129 -127 c-89 -87 -132 -137 -140 -161 -22 -70 -41 -278 -60 -665
l-7 -140 -24 75 c-39 127 -130 348 -202 493 -170 343 -370 623 -659 922 -401
415 -638 979 -621 1481 1 15 11 24 40 32 53 16 90 48 112 96 24 52 24 100 0
151 -33 72 -86 105 -167 105 -51 0 -76 -11 -117 -49 -41 -37 -57 -73 -57 -126
0 -61 20 -107 64 -141 l36 -29 0 -100 c1 -314 112 -699 288 -1002 23 -39 42
-74 42 -78 0 -3 -35 19 -77 50 -435 310 -944 522 -1465 609 -406 69 -836 67
-1223 -4 -486 -90 -907 -258 -1317 -526 -71 -46 -128 -82 -128 -80 0 2 16 33
36 68 161 283 264 654 264 949 l0 110 36 31 c78 69 91 168 32 251 -47 66 -158
87 -233 44z m161 -100 c75 -89 -55 -200 -137 -118 -35 36 -38 77 -8 115 41 52
103 53 145 3z m3737 2 c45 -55 -3 -149 -78 -149 -68 0 -109 77 -74 141 26 50
114 54 152 8z m-1767 -809 c477 -28 931 -149 1344 -358 135 -68 303 -165 350
-202 l25 -20 -35 11 c-55 17 -346 23 -440 10 l-82 -12 -33 35 c-59 65 -135 82
-210 47 -73 -33 -105 -86 -105 -169 1 -97 76 -172 173 -172 89 0 155 48 177
130 11 41 17 45 90 54 255 32 475 0 666 -96 64 -32 112 -67 220 -167 77 -70
146 -136 154 -146 14 -17 13 -18 -10 -12 -139 38 -466 75 -547 62 -16 -2 -80
-7 -143 -10 -63 -3 -124 -7 -135 -9 -14 -2 -27 8 -42 29 -27 39 -96 75 -144
75 -42 0 -107 -29 -136 -61 -73 -80 -52 -220 43 -275 102 -60 231 -8 265 105
11 38 12 38 73 45 104 12 387 15 476 5 223 -26 404 -83 466 -149 56 -58 211
-275 284 -397 63 -104 210 -387 210 -404 0 -4 -25 6 -55 24 -40 23 -55 38 -55
54 0 27 -101 154 -167 209 -172 145 -323 201 -520 191 -56 -3 -106 -8 -112
-11 -30 -19 181 -261 309 -356 127 -94 276 -147 386 -137 57 6 65 4 124 -31
34 -20 88 -65 120 -99 52 -55 61 -72 93 -170 49 -147 91 -319 122 -497 l7 -39
-60 75 c-104 131 -273 258 -459 345 -98 45 -134 50 -147 17 -11 -29 13 -51
117 -101 143 -70 237 -133 335 -228 100 -95 169 -197 214 -314 l33 -86 -1
-235 c0 -217 -5 -315 -21 -412 -5 -36 -7 -34 -40 65 -73 219 -210 428 -391
598 -262 246 -579 381 -932 396 l-125 6 85 -89 c173 -180 236 -376 265 -819
31 -495 110 -693 315 -793 118 -57 165 -66 380 -67 189 -2 255 -8 266 -26 8
-14 -80 -227 -156 -380 -117 -235 -287 -499 -364 -566 -51 -45 -149 -98 -239
-128 -91 -30 -218 -50 -417 -65 -272 -20 -410 -45 -548 -101 -228 -91 -431
-300 -576 -594 -61 -124 -127 -283 -141 -338 -4 -15 -14 -29 -23 -31 -31 -10
-286 -54 -347 -61 -33 -4 -71 -9 -85 -11 -72 -13 -450 -16 -585 -5 -194 15
-475 58 -491 74 -2 2 -25 58 -49 123 -178 470 -411 747 -723 858 -119 42 -252
65 -467 82 -165 12 -333 34 -409 54 -156 40 -310 136 -406 253 -28 34 -60 73
-72 87 -39 45 -158 250 -223 384 -59 121 -155 348 -155 366 0 16 72 23 260 25
212 1 258 9 378 65 113 53 204 169 250 320 26 86 48 232 62 405 31 408 57 546
131 697 41 84 80 137 156 213 l68 67 -125 -5 c-346 -14 -670 -150 -923 -387
-188 -177 -332 -394 -405 -614 -14 -42 -21 -53 -25 -40 -14 46 -28 391 -22
529 6 132 10 158 35 217 41 99 109 195 202 284 98 94 192 157 335 227 104 50
128 72 117 101 -13 34 -50 29 -150 -18 -180 -85 -363 -222 -450 -336 -21 -28
-40 -46 -42 -41 -9 26 61 321 119 502 37 117 43 129 92 177 29 28 79 67 112
87 55 33 64 35 116 29 145 -16 328 69 500 233 93 89 213 243 200 256 -5 5 -56
11 -113 14 -182 10 -337 -42 -488 -164 -105 -85 -200 -198 -200 -238 0 -14
-16 -29 -50 -48 l-51 -29 76 152 c120 239 289 500 415 642 44 49 60 60 137 88
135 49 289 72 498 74 99 2 221 -2 272 -7 l91 -9 7 -34 c7 -39 54 -98 96 -120
45 -23 125 -18 175 11 87 51 111 179 49 260 -32 42 -94 74 -144 75 -49 0 -118
-36 -145 -76 -12 -19 -25 -32 -27 -30 -7 7 -227 19 -344 19 -144 0 -259 -10
-367 -32 -77 -15 -86 -15 -75 -2 99 127 207 234 287 287 83 55 274 108 425
119 82 6 294 -8 328 -21 8 -3 19 -23 26 -44 34 -113 161 -165 263 -108 96 54
119 196 45 277 -74 80 -196 78 -272 -5 l-33 -36 -70 11 c-88 14 -317 14 -396
1 -33 -5 -61 -8 -63 -7 -4 5 172 110 297 177 330 178 756 315 1130 364 25 4
64 9 87 12 44 6 261 20 349 23 29 0 132 -4 230 -9z m-3337 -485 c16 -8 33 -28
39 -44 28 -81 -53 -155 -127 -117 -60 31 -70 99 -22 147 33 32 67 37 110 14z
m6382 -14 c85 -85 -34 -211 -125 -132 -65 57 -22 159 67 161 19 0 39 -10 58
-29z m-4386 -77 c66 -43 45 -148 -34 -167 -31 -8 -86 15 -100 41 -46 85 54
179 134 126z m2396 -13 c84 -84 -35 -210 -125 -132 -29 25 -38 59 -26 97 23
69 99 86 151 35z m-5380 -350 c46 -47 31 -125 -29 -150 -39 -16 -77 -5 -108
32 -75 89 55 200 137 118z m8360 19 c28 -16 52 -68 44 -99 -28 -113 -185 -93
-185 24 0 38 50 85 90 85 17 0 40 -5 51 -10z m-5662 -105 c32 -16 41 -33 41
-79 0 -65 -55 -106 -116 -86 -69 23 -86 99 -35 151 33 32 67 37 110 14z m2962
-14 c50 -50 37 -121 -28 -147 -65 -27 -123 12 -123 83 0 87 90 125 151 64z
m-3961 -661 c-78 -99 -228 -214 -333 -257 -65 -26 -197 -43 -197 -25 0 21 154
173 220 217 37 25 99 57 136 71 64 24 179 45 197 36 4 -2 -6 -21 -23 -42z
m5025 5 c37 -14 98 -45 135 -70 66 -44 220 -196 220 -217 0 -18 -133 -2 -197
24 -32 13 -85 41 -118 63 -79 52 -253 224 -236 234 19 12 123 -6 196 -34z
m-7143 -424 c407 -106 656 -318 740 -630 16 -60 21 -107 21 -224 1 -168 -10
-199 -37 -110 -58 186 -161 411 -253 551 -115 174 -280 315 -300 256 -2 -6 27
-34 65 -61 107 -78 205 -210 306 -411 44 -89 122 -285 149 -379 l16 -52 -52
33 c-29 18 -93 49 -144 70 -168 70 -213 134 -262 371 -32 159 -68 252 -134
352 -43 65 -168 194 -232 241 -41 29 -20 28 117 -7z m9273 6 c-148 -110 -257
-247 -314 -396 -16 -42 -41 -134 -55 -206 -31 -152 -69 -239 -127 -288 -22
-19 -81 -51 -132 -72 -89 -36 -106 -45 -163 -82 l-26 -17 7 35 c14 67 88 256
150 384 100 207 194 335 310 419 66 49 76 62 51 72 -25 10 -79 -27 -157 -105
-92 -92 -173 -215 -250 -375 -52 -110 -149 -361 -149 -386 0 -5 -4 -10 -9 -10
-13 0 -19 80 -16 210 11 407 277 687 775 815 52 13 104 24 115 24 17 0 16 -3
-10 -22z m-6904 -809 c-113 -171 -162 -360 -191 -723 -5 -71 -12 -164 -16
-205 -13 -170 -51 -322 -100 -406 -14 -23 -46 -62 -73 -87 -90 -84 -182 -116
-356 -123 -66 -3 -155 -2 -197 3 -50 6 -81 6 -88 -1 -21 -21 -21 5 0 48 25 53
74 97 145 130 28 13 90 43 140 66 116 55 199 135 250 241 38 80 53 135 39 149
-15 15 -29 -2 -57 -77 -57 -147 -140 -225 -327 -307 -103 -45 -167 -87 -200
-131 -14 -18 -26 -32 -28 -30 -7 7 112 344 163 460 109 252 216 418 359 560
72 72 120 111 168 135 45 23 68 41 68 53 0 72 -219 -79 -353 -243 -160 -197
-282 -443 -402 -804 l-62 -190 -17 55 c-43 146 -50 206 -38 313 44 401 349
813 748 1014 131 66 331 129 417 131 l29 1 -21 -32z m4459 13 c403 -90 754
-368 945 -750 90 -180 134 -368 121 -527 -6 -80 -38 -208 -55 -218 -4 -3 -16
25 -26 62 -29 107 -92 287 -147 415 -149 352 -328 600 -522 726 -82 53 -126
65 -126 34 0 -12 23 -30 68 -53 93 -47 247 -202 335 -335 82 -126 173 -308
242 -484 46 -120 105 -296 105 -316 0 -4 -24 15 -54 43 -39 35 -85 63 -162 96
-60 26 -132 64 -162 83 -78 52 -151 156 -182 260 -14 44 -37 63 -47 37 -15
-40 56 -193 124 -265 57 -61 116 -99 233 -149 114 -50 169 -87 202 -137 54
-81 60 -78 -140 -81 -271 -5 -392 28 -495 137 -116 121 -142 224 -182 724 -27
332 -78 522 -186 685 l-21 32 24 0 c12 0 61 -9 108 -19z m-6226 -1381 c116
-29 202 -75 273 -145 63 -63 91 -123 78 -166 -7 -22 -84 -64 -136 -74 -52 -10
-99 14 -150 76 -103 124 -163 180 -227 211 -58 29 -75 32 -180 36 l-116 5 47
24 c111 56 271 69 411 33z m8209 5 c32 -8 79 -26 104 -39 l47 -23 -116 -5
c-105 -4 -122 -7 -180 -36 -64 -31 -124 -87 -227 -211 -52 -62 -96 -85 -149
-75 -47 9 -128 49 -135 67 -7 19 6 74 26 113 41 79 202 179 337 208 87 19 223
19 293 1z m-808 -877 c9 -8 -89 -67 -146 -89 -33 -13 -77 -20 -116 -20 -66 0
-133 16 -133 32 0 23 155 79 245 88 58 6 140 0 150 -11z m-6658 -13 c43 -14
94 -34 113 -45 l35 -19 -40 -16 c-87 -37 -223 -14 -329 57 -60 39 -49 48 61
48 61 0 102 -7 160 -25z m7 -511 c141 -20 326 -71 490 -136 l131 -51 95 -94
95 -94 -70 32 c-38 17 -95 42 -125 56 -111 50 -357 145 -487 189 -130 43 -358
103 -398 105 -17 0 -18 1 -3 7 25 10 147 4 272 -14z m6616 -10 c-263 -60 -626
-193 -956 -349 -64 -30 -118 -55 -120 -55 -2 0 32 32 74 71 42 39 92 87 110
107 17 19 42 36 55 38 12 1 78 25 147 54 236 98 498 158 690 158 l105 1 -105
-25z m-5645 -93 c44 -6 145 -15 225 -21 80 -6 190 -18 244 -26 411 -65 660
-298 872 -816 25 -60 44 -111 42 -113 -4 -4 -279 78 -295 88 -6 4 -56 64 -110
135 -119 154 -330 369 -435 440 -84 57 -209 119 -428 212 -146 61 -269 126
-220 116 14 -2 61 -9 105 -15z m4615 14 c0 -9 -134 -73 -295 -140 -196 -82
-307 -140 -405 -212 -102 -76 -274 -253 -395 -406 l-99 -128 -139 -44 c-132
-43 -167 -51 -167 -40 0 18 91 229 137 315 166 316 376 500 648 568 104 27
188 38 423 57 106 9 212 20 235 24 56 12 57 12 57 6z m-4832 -49 c66 -41 210
-111 387 -186 94 -39 205 -93 249 -118 100 -60 242 -179 326 -273 102 -114
172 -201 166 -206 -8 -8 -327 151 -447 223 -155 93 -313 205 -439 311 -111 93
-300 272 -287 273 4 0 25 -11 45 -24z m4800 -111 c-154 -148 -362 -307 -562
-430 -111 -68 -417 -227 -425 -220 -10 10 183 224 282 313 124 111 250 184
473 275 62 25 156 68 210 96 55 27 101 50 104 50 3 0 -34 -37 -82 -84z m-5120
-309 c369 -48 814 -171 1024 -282 140 -74 306 -154 407 -195 l83 -34 -43 -8
c-24 -5 -120 -9 -214 -9 -291 -2 -496 51 -915 235 -454 199 -680 271 -925 293
-61 6 -74 10 -55 16 42 13 504 1 638 -16z m6202 16 c31 -7 24 -9 -48 -15 -241
-21 -466 -92 -907 -284 -249 -109 -476 -190 -605 -217 -138 -29 -319 -39 -463
-27 -72 7 -135 15 -140 18 -5 3 26 20 69 38 44 17 160 70 259 117 99 47 234
106 300 131 297 112 660 198 970 230 145 16 511 21 565 9z"/>
<path d="M10376 13642 c-3 -5 -74 -166 -159 -358 -85 -192 -333 -754 -552
-1249 -218 -495 -424 -961 -457 -1035 -136 -309 -286 -564 -424 -725 -83 -95
-220 -202 -326 -253 l-76 -37 21 -30 c12 -16 37 -49 56 -72 l35 -43 593 0 593
0 0 54 0 53 -82 6 c-167 13 -325 123 -401 277 -68 139 -74 262 -18 373 66 129
163 222 306 292 150 74 233 89 480 90 242 0 360 -14 455 -55 83 -36 241 -84
350 -107 128 -27 396 -25 505 5 427 114 722 457 901 1047 19 61 34 114 34 118
0 5 -23 -12 -51 -37 -151 -135 -397 -216 -829 -271 -406 -51 -678 -157 -833
-325 -55 -59 -110 -157 -122 -216 -6 -32 -6 -32 57 -53 134 -43 329 -54 512
-26 127 19 130 19 74 -10 -102 -54 -188 -70 -373 -70 -154 0 -184 3 -320 32
-82 18 -177 35 -210 38 -33 4 -73 8 -90 10 -16 2 -75 4 -130 5 l-100 1 79 20
c138 34 221 87 257 164 22 47 25 113 6 121 -23 8 -182 -55 -248 -100 -70 -47
-130 -118 -147 -175 l-11 -36 -118 -23 c-65 -12 -162 -38 -215 -56 -54 -18
-98 -31 -98 -28 0 2 37 86 81 186 45 99 143 323 219 496 230 524 481 1094 489
1108 4 8 108 -210 256 -538 197 -436 252 -550 264 -546 9 3 67 26 129 51 125
51 289 96 454 123 l108 17 -76 165 c-94 205 -82 178 -291 635 -96 209 -236
513 -310 675 -74 162 -139 300 -144 306 -10 13 -96 18 -103 6z"/>
<path d="M11695 10834 c-148 -104 -361 -181 -550 -199 -38 -4 -71 -8 -71 -9
-1 0 18 -46 43 -101 128 -287 138 -420 36 -504 -67 -55 -115 -64 -378 -70
l-240 -6 -2 -35 c-1 -19 1 -43 4 -52 4 -17 56 -18 916 -18 l912 0 21 33 c12
17 29 44 38 58 l17 27 -69 21 c-134 41 -261 156 -353 323 -19 35 -86 176 -149
315 -63 139 -117 252 -120 252 -3 0 -27 -16 -55 -35z"/>
<path d="M5527 7248 c-3 -7 -48 -107 -100 -223 -52 -115 -210 -469 -352 -785
-141 -316 -282 -624 -313 -684 -80 -155 -135 -206 -259 -242 -7 -2 -13 -15
-13 -29 l0 -25 329 0 330 0 -2 28 c-2 22 -7 27 -32 30 -242 20 -276 98 -162
367 l55 130 345 3 344 2 77 -182 c64 -151 76 -189 74 -226 -4 -65 -34 -85
-141 -92 -81 -5 -82 -5 -85 -32 l-3 -28 475 0 476 0 0 29 c0 26 -4 29 -41 34
-48 6 -101 46 -141 103 -45 66 -107 201 -471 1029 -339 771 -372 837 -390 793z
m-24 -986 c75 -174 137 -321 137 -325 0 -4 -131 -7 -290 -7 l-290 0 18 38 c11
20 77 166 147 325 70 158 131 287 134 287 3 0 68 -143 144 -318z"/>
<path d="M15051 7233 c-21 -44 -216 -478 -471 -1048 -255 -571 -294 -653 -351
-736 -43 -64 -115 -117 -171 -125 -34 -6 -38 -10 -38 -35 l0 -29 331 0 330 0
-3 28 c-3 26 -7 27 -69 34 -99 11 -140 28 -167 68 -38 56 -28 134 40 295 l55
130 345 3 345 2 73 -172 c59 -140 74 -183 74 -227 1 -75 -24 -93 -137 -101
-81 -5 -82 -5 -85 -32 l-3 -28 475 0 476 0 0 30 c0 26 -4 30 -26 30 -76 0
-148 72 -222 222 -41 84 -363 811 -696 1573 -37 84 -68 141 -77 143 -9 2 -21
-9 -28 -25z m-16 -976 c75 -175 135 -320 133 -322 -3 -3 -424 -7 -554 -5 -19
0 -6 33 125 329 80 181 149 327 152 323 4 -4 68 -150 144 -325z"/>
<path d="M6660 7192 l0 -29 80 -6 c92 -6 134 -26 165 -77 20 -34 20 -48 20
-840 0 -792 0 -806 -20 -840 -30 -50 -74 -71 -163 -79 -75 -6 -77 -7 -80 -33
l-3 -28 500 0 501 0 0 29 c0 27 -1 28 -58 30 -107 3 -163 29 -190 89 -14 31
-17 90 -20 390 l-4 353 67 -3 68 -3 219 -310 c121 -170 261 -369 311 -442 l92
-132 313 -1 313 0 -3 26 c-3 23 -10 29 -51 39 -91 23 -98 31 -441 514 l-244
344 79 27 c97 34 162 75 227 144 86 91 122 187 122 327 0 110 -26 197 -84 281
-84 124 -212 199 -396 234 -83 15 -174 18 -707 22 l-613 3 0 -29z m1096 -112
c153 -53 225 -179 225 -395 0 -151 -23 -231 -92 -310 -72 -81 -182 -114 -386
-115 l-113 0 0 426 0 427 153 -6 c120 -4 165 -10 213 -27z"/>
<path d="M8800 7190 l0 -30 61 0 c83 0 131 -16 171 -57 l33 -34 3 -810 c2
-788 2 -812 -17 -855 -27 -60 -78 -83 -178 -84 l-73 0 0 -30 0 -30 513 2 512
3 0 25 c0 24 -3 25 -59 27 -95 2 -123 11 -165 51 -30 29 -41 47 -46 82 -3 25
-5 397 -3 827 3 771 3 782 24 810 33 46 98 73 175 73 52 0 68 4 73 16 18 46
38 44 -509 44 l-515 0 0 -30z"/>
<path d="M9910 7191 c0 -26 4 -29 42 -35 23 -4 60 -17 81 -29 35 -20 47 -38
112 -172 40 -82 98 -208 128 -280 50 -120 408 -951 560 -1300 64 -148 81 -173
108 -163 8 3 164 340 348 749 368 819 434 960 491 1048 44 68 115 126 178 143
37 11 42 16 42 40 l0 28 -325 0 -325 0 0 -30 c0 -29 1 -30 48 -30 104 0 183
-43 203 -110 10 -32 9 -51 -4 -105 -16 -63 -464 -1085 -476 -1085 -3 0 -116
258 -251 573 -217 508 -244 578 -245 626 0 51 2 56 33 74 23 13 61 22 115 26
81 6 82 6 83 34 l1 27 -473 0 -474 0 0 -29z"/>
<path d="M12080 7191 l0 -28 83 -5 c65 -3 92 -9 121 -28 69 -42 66 -3 66 -891
0 -747 -1 -804 -17 -838 -27 -53 -88 -81 -180 -81 l-73 0 0 -30 0 -30 870 0
869 0 6 33 c3 17 16 142 30 277 14 135 29 275 33 313 l8 67 -30 0 c-30 0 -32
-3 -64 -98 -72 -211 -164 -350 -275 -415 -91 -54 -143 -62 -382 -62 -241 0
-253 3 -292 62 -17 25 -18 79 -18 818 0 775 0 791 20 825 32 55 92 80 192 80
l83 0 0 30 0 30 -525 0 -525 0 0 -29z"/>
</g>
</svg>
